<?xml version="1.0" encoding="UTF-8" standalone="no"?>
<!-- Created with Inkscape (http://www.inkscape.org/) -->
<svg xmlns:dc="http://purl.org/dc/elements/1.1/" xmlns:cc="http://creativecommons.org/ns#" xmlns:rdf="http://www.w3.org/1999/02/22-rdf-syntax-ns#" xmlns:svg="http://www.w3.org/2000/svg" xmlns="http://www.w3.org/2000/svg" xmlns:sodipodi="http://sodipodi.sourceforge.net/DTD/sodipodi-0.dtd" xmlns:inkscape="http://www.inkscape.org/namespaces/inkscape" width="663.22101" height="323.84317" id="svg2" version="1.1" inkscape:version="0.48.2 r9819" sodipodi:docname="BunimovichStadium.svg">
  <title id="title3007">BunimovichStadium</title>
  <defs id="defs4">
    <marker inkscape:stockid="TriangleOutL" orient="auto" refY="0" refX="0" id="TriangleOutL" style="overflow:visible">
      <path id="path4215" d="m 5.77,0 -8.65,5 0,-10 8.65,5 z" style="fill-rule:evenodd;stroke:#000000;stroke-width:1pt;marker-start:none" transform="scale(0.8,0.8)" inkscape:connector-curvature="0"/>
    </marker>
    <marker inkscape:stockid="Arrow2Lend" orient="auto" refY="0" refX="0" id="Arrow2Lend" style="overflow:visible">
      <path id="path4093" style="font-size:12px;fill-rule:evenodd;stroke-width:0.625;stroke-linejoin:round" d="M 8.7185878,4.0337352 -2.2072895,0.01601326 8.7185884,-4.0017078 c -1.7454984,2.3720609 -1.7354408,5.6174519 -6e-7,8.035443 z" transform="matrix(-1.1,0,0,-1.1,-1.1,0)" inkscape:connector-curvature="0"/>
    </marker>
    <marker inkscape:stockid="Arrow1Lstart" orient="auto" refY="0" refX="0" id="Arrow1Lstart" style="overflow:visible">
      <path id="path4072" d="M 0,0 5,-5 -12.5,0 5,5 0,0 z" style="fill-rule:evenodd;stroke:#000000;stroke-width:1pt;marker-start:none" transform="matrix(0.8,0,0,0.8,10,0)" inkscape:connector-curvature="0"/>
    </marker>
    <marker inkscape:stockid="Arrow1Lend" orient="auto" refY="0" refX="0" id="Arrow1Lend" style="overflow:visible">
      <path id="path4075" d="M 0,0 5,-5 -12.5,0 5,5 0,0 z" style="fill-rule:evenodd;stroke:#000000;stroke-width:1pt;marker-start:none" transform="matrix(-0.8,0,0,-0.8,-10,0)" inkscape:connector-curvature="0"/>
    </marker>
    <marker inkscape:stockid="SquareM" orient="auto" refY="0" refX="0" id="SquareM" style="overflow:visible">
      <path id="path4146" d="M -5,-5 -5,5 5,5 5,-5 -5,-5 z" style="fill-rule:evenodd;stroke:#000000;stroke-width:1pt;marker-start:none" transform="scale(0.4,0.4)" inkscape:connector-curvature="0"/>
    </marker>
    <marker inkscape:stockid="Arrow2Lend" orient="auto" refY="0" refX="0" id="Arrow2Lend-8" style="overflow:visible">
      <path inkscape:connector-curvature="0" id="path4093-2" style="font-size:12px;fill-rule:evenodd;stroke-width:0.625;stroke-linejoin:round" d="M 8.7185878,4.0337352 -2.2072895,0.01601326 8.7185884,-4.0017078 c -1.7454984,2.3720609 -1.7354408,5.6174519 -6e-7,8.035443 z" transform="matrix(-1.1,0,0,-1.1,-1.1,0)"/>
    </marker>
  </defs>
  <sodipodi:namedview id="base" pagecolor="#ffffff" bordercolor="#666666" borderopacity="1.0" inkscape:pageopacity="0.0" inkscape:pageshadow="2" inkscape:zoom="0.97070895" inkscape:cx="183.32511" inkscape:cy="248.22022" inkscape:document-units="px" inkscape:current-layer="layer1" showgrid="false" inkscape:window-width="1024" inkscape:window-height="706" inkscape:window-x="-8" inkscape:window-y="-8" inkscape:window-maximized="1" fit-margin-top="0" fit-margin-left="0" fit-margin-right="0" fit-margin-bottom="0"/>
  <metadata id="metadata7">
    <rdf:RDF>
      <cc:Work rdf:about="">
        <dc:format>image/svg+xml</dc:format>
        <dc:type rdf:resource="http://purl.org/dc/dcmitype/StillImage"/>
        <dc:title>BunimovichStadium</dc:title>
        <dc:date>12/7/2009</dc:date>
        <dc:creator>
          <cc:Agent>
            <dc:title>George Stamatiou based on user XaosBits file</dc:title>
          </cc:Agent>
        </dc:creator>
        <dc:publisher>
          <cc:Agent>
            <dc:title>George Stamatiou</dc:title>
          </cc:Agent>
        </dc:publisher>
        <dc:subject>
          <rdf:Bag>
            <rdf:li>Bunimovich Stadium</rdf:li>
          </rdf:Bag>
        </dc:subject>
        <cc:license rdf:resource="http://creativecommons.org/licenses/by/3.0/"/>
        <dc:description>Motion of a particle in the Bunimovich billiard. 
(George Stamatiou inkscape svg based on wikipedia user XaosBits png)</dc:description>
        <dc:source>http://commons.wikimedia.org/wiki/File:BunimovichStadium.png</dc:source>
      </cc:Work>
      <cc:License rdf:about="http://creativecommons.org/licenses/by/3.0/">
        <cc:permits rdf:resource="http://creativecommons.org/ns#Reproduction"/>
        <cc:permits rdf:resource="http://creativecommons.org/ns#Distribution"/>
        <cc:requires rdf:resource="http://creativecommons.org/ns#Notice"/>
        <cc:requires rdf:resource="http://creativecommons.org/ns#Attribution"/>
        <cc:permits rdf:resource="http://creativecommons.org/ns#DerivativeWorks"/>
      </cc:License>
    </rdf:RDF>
  </metadata>
  <g inkscape:label="Layer 1" inkscape:groupmode="layer" id="layer1" style="display:inline" transform="translate(-30.956472,-25.833578)"/>
  <g inkscape:groupmode="layer" id="layer2" inkscape:label="Layer2" transform="translate(-30.956472,-25.833578)">
    <g id="g9627">
      <path sodipodi:open="true" transform="matrix(0.88662064,0,0,1.0179096,-60.515162,-35.80953)" sodipodi:end="4.712389" sodipodi:start="1.5707963" d="m 262.16947,377.04633 c -86.76264,0 -157.09766,-70.33502 -157.09766,-157.09766 0,-86.76264 70.33501,-157.097654 157.09765,-157.097657 0,0 0,0 10e-6,0" sodipodi:ry="157.09766" sodipodi:rx="157.09766" sodipodi:cy="219.94867" sodipodi:cx="262.16946" id="path3769" style="opacity:0.98999999;fill:none;stroke:#000000;stroke-width:3.55200005;stroke-linecap:butt;stroke-linejoin:round;stroke-miterlimit:4;stroke-opacity:1;stroke-dasharray:none" sodipodi:type="arc"/>
      <path sodipodi:open="true" transform="matrix(-0.88662064,0,0,1.0179096,785.64909,-36.418143)" sodipodi:end="4.712389" sodipodi:start="1.5707963" d="m 262.16947,377.04633 c -86.76264,0 -157.09766,-70.33502 -157.09766,-157.09766 0,-86.76264 70.33501,-157.097654 157.09765,-157.097657 0,0 0,0 10e-6,0" sodipodi:ry="157.09766" sodipodi:rx="157.09766" sodipodi:cy="219.94867" sodipodi:cx="262.16946" id="path3769-1" style="opacity:0.98999999;fill:none;stroke:#000000;stroke-width:3.55200005;stroke-linecap:butt;stroke-linejoin:round;stroke-miterlimit:4;stroke-opacity:1;stroke-dasharray:none" sodipodi:type="arc"/>
      <path inkscape:connector-curvature="0" id="path3789" d="m 172.26499,347.847 385.19019,-0.72133 0,0" style="fill:none;stroke:#000000;stroke-width:3.37400007;stroke-linecap:butt;stroke-linejoin:miter;stroke-miterlimit:4;stroke-opacity:1;stroke-dasharray:none"/>
      <path inkscape:connector-curvature="0" id="path3789-7" d="m 168.00631,28.241908 385.19019,-0.72133 0,0" style="fill:none;stroke:#000000;stroke-width:3.37400007;stroke-linecap:butt;stroke-linejoin:miter;stroke-miterlimit:4;stroke-opacity:1;stroke-dasharray:none"/>
      <path transform="matrix(1.2057416,0,0,1.2352942,-42.021197,-36.210883)" d="m 360.10045,175.57368 c 0,4.78885 -3.76794,8.67098 -8.41594,8.67098 -4.648,0 -8.41595,-3.88213 -8.41595,-8.67098 0,-4.78884 3.76795,-8.67097 8.41595,-8.67097 4.648,0 8.41594,3.88213 8.41594,8.67097 z" sodipodi:ry="8.6709738" sodipodi:rx="8.4159451" sodipodi:cy="175.57368" sodipodi:cx="351.68451" id="path3832" style="opacity:0.98999999;fill:#000000;fill-opacity:0.71428576;stroke:#000000;stroke-width:0;stroke-linecap:butt;stroke-linejoin:round;stroke-miterlimit:4;stroke-opacity:0.71372549;stroke-dasharray:none" sodipodi:type="arc"/>
      <path transform="matrix(1.2057416,0,0,1.2352942,-60.36979,-31.620384)" d="m 360.10045,175.57368 c 0,4.78885 -3.76794,8.67098 -8.41594,8.67098 -4.648,0 -8.41595,-3.88213 -8.41595,-8.67098 0,-4.78884 3.76795,-8.67097 8.41595,-8.67097 4.648,0 8.41594,3.88213 8.41594,8.67097 z" sodipodi:ry="8.6709738" sodipodi:rx="8.4159451" sodipodi:cy="175.57368" sodipodi:cx="351.68451" id="path3832-3" style="opacity:0.98999999;fill:#000000;fill-opacity:0.71428576;stroke:#000000;stroke-width:0;stroke-linecap:butt;stroke-linejoin:round;stroke-miterlimit:4;stroke-opacity:0.71372549;stroke-dasharray:none" sodipodi:type="arc"/>
      <path transform="matrix(1.2057416,0,0,1.2352942,-69.550819,-29.070101)" d="m 360.10045,175.57368 c 0,4.78885 -3.76794,8.67098 -8.41594,8.67098 -4.648,0 -8.41595,-3.88213 -8.41595,-8.67098 0,-4.78884 3.76795,-8.67097 8.41595,-8.67097 4.648,0 8.41594,3.88213 8.41594,8.67097 z" sodipodi:ry="8.6709738" sodipodi:rx="8.4159451" sodipodi:cy="175.57368" sodipodi:cx="351.68451" id="path3832-1" style="opacity:0.98999999;fill:#000000;fill-opacity:0.71428576;stroke:#000000;stroke-width:0;stroke-linecap:butt;stroke-linejoin:round;stroke-miterlimit:4;stroke-opacity:0.71372549;stroke-dasharray:none" sodipodi:type="arc"/>
      <path transform="matrix(1.2057416,0,0,1.2352942,-74.651388,-27.02987)" d="m 360.10045,175.57368 c 0,4.78885 -3.76794,8.67098 -8.41594,8.67098 -4.648,0 -8.41595,-3.88213 -8.41595,-8.67098 0,-4.78884 3.76795,-8.67097 8.41595,-8.67097 4.648,0 8.41594,3.88213 8.41594,8.67097 z" sodipodi:ry="8.6709738" sodipodi:rx="8.4159451" sodipodi:cy="175.57368" sodipodi:cx="351.68451" id="path3832-6" style="opacity:0.98999999;fill:#000000;fill-opacity:0.71428576;stroke:#000000;stroke-width:0;stroke-linecap:butt;stroke-linejoin:round;stroke-miterlimit:4;stroke-opacity:0.71372549;stroke-dasharray:none" sodipodi:type="arc"/>
      <path transform="matrix(1.2057416,0,0,1.2352942,-13.444511,-107.61892)" d="m 360.10045,175.57368 c 0,4.78885 -3.76794,8.67098 -8.41594,8.67098 -4.648,0 -8.41595,-3.88213 -8.41595,-8.67098 0,-4.78884 3.76795,-8.67097 8.41595,-8.67097 4.648,0 8.41594,3.88213 8.41594,8.67097 z" sodipodi:ry="8.6709738" sodipodi:rx="8.4159451" sodipodi:cy="175.57368" sodipodi:cx="351.68451" id="path3832-8" style="opacity:0.98999999;fill:#000000;fill-opacity:1;stroke:#000000;stroke-width:0;stroke-linecap:butt;stroke-linejoin:round;stroke-miterlimit:4;stroke-opacity:0.71372549;stroke-dasharray:none" sodipodi:type="arc"/>
      <path sodipodi:nodetypes="cccccccc" inkscape:connector-curvature="0" id="path3885" d="M 356.337,188.2089 668.67287,101.64931 431.35531,346.18016 130.56072,36.00828 l 35.34517,310.17188 192.5951,-316.66385 57.70639,88.72358 0.72133,0" style="fill:none;stroke:#000000;stroke-width:2;stroke-linecap:butt;stroke-linejoin:miter;stroke-miterlimit:4;stroke-opacity:1;stroke-dasharray:none"/>
      <path inkscape:connector-curvature="0" id="path9221" d="M 416.004,118.33463 531.4168,308.76574" style="fill:none;stroke:#000000;stroke-width:2;stroke-linecap:butt;stroke-linejoin:miter;stroke-miterlimit:4;stroke-opacity:1;stroke-dasharray:12, 2;stroke-dashoffset:0;marker-end:url(#Arrow2Lend);display:inline"/>
    </g>
  </g>
</svg>